HIERARCHY
ROOT Hips
{
	OFFSET 0.000000 100.481300 0.000000
	CHANNELS 6 Xposition Yposition Zposition Xrotation Yrotation Zrotation 
	JOINT Spine
	{
		OFFSET -0.279200 12.230698 -2.892100
		CHANNELS 3 Xrotation Yrotation Zrotation
		JOINT Spine1
		{
			OFFSET -0.232667 10.192268 -1.242267
			CHANNELS 3 Xrotation Yrotation Zrotation
			JOINT Spine1_split
			{
				OFFSET -0.232667 10.192268 -1.242267
				CHANNELS 3 Xrotation Yrotation Zrotation
				JOINT Spine2
				{
					OFFSET -0.232667 10.192268 -1.242267
					CHANNELS 3 Xrotation Yrotation Zrotation
					JOINT Neck
					{
						OFFSET -0.418800 17.814194 8.416900
						CHANNELS 3 Xrotation Yrotation Zrotation
						JOINT Head
						{
							OFFSET 0.000000 7.031097 3.806800
							CHANNELS 3 Xrotation Yrotation Zrotation
							JOINT HeadTop_End
							{
								OFFSET 0.000000 24.646606 12.978600
								CHANNELS 3 Xrotation Yrotation Zrotation
								End Site
								{
									OFFSET 0.000000 0.000000 0.000000
								}
							}
						}
					}
					JOINT LeftShoulder
					{
						OFFSET 8.476499 7.247704 -3.868750
						CHANNELS 3 Xrotation Yrotation Zrotation
						JOINT LeftShoulder_split
						{
							OFFSET 8.476499 7.247704 -3.868750
							CHANNELS 3 Xrotation Yrotation Zrotation
							JOINT LeftArm
							{
								OFFSET 9.308998 -2.777710 0.208600
								CHANNELS 3 Xrotation Yrotation Zrotation
								JOINT LeftForeArm
								{
									OFFSET 29.972298 0.000000 0.000000
									CHANNELS 3 Xrotation Yrotation Zrotation
									JOINT LeftHand
									{
										OFFSET 26.026505 0.000000 0.000000
										CHANNELS 3 Xrotation Yrotation Zrotation
										JOINT LeftHandThumb1
										{
											OFFSET 12.240501 -7.147949 9.207150
											CHANNELS 3 Xrotation Yrotation Zrotation
											JOINT LeftHandThumb2
											{
												OFFSET 4.138618 -2.389435 2.389433
												CHANNELS 3 Xrotation Yrotation Zrotation
												JOINT LeftHandThumb3
												{
													OFFSET 2.726913 -1.574387 1.574386
													CHANNELS 3 Xrotation Yrotation Zrotation
													JOINT LeftHandThumb4
													{
														OFFSET 3.941010 -2.275345 2.275342
														CHANNELS 3 Xrotation Yrotation Zrotation
														End Site
														{
															OFFSET 0.000000 0.000000 0.000000
														}
													}
												}
											}
										}
										JOINT LeftHandIndex1
										{
											OFFSET 24.424698 -1.985611 5.953459
											CHANNELS 3 Xrotation Yrotation Zrotation
											JOINT LeftHandIndex2
											{
												OFFSET 6.426697 0.000000 0.000000
												CHANNELS 3 Xrotation Yrotation Zrotation
												JOINT LeftHandIndex3
												{
													OFFSET 5.337898 0.000000 0.000000
													CHANNELS 3 Xrotation Yrotation Zrotation
													JOINT LeftHandIndex4
													{
														OFFSET 4.409401 0.000000 0.000000
														CHANNELS 3 Xrotation Yrotation Zrotation
														End Site
														{
															OFFSET 0.000000 0.000000 0.000000
														}
													}
												}
											}
										}
										JOINT LeftHandMiddle1
										{
											OFFSET 23.810104 0.000000 0.000000
											CHANNELS 3 Xrotation Yrotation Zrotation
											JOINT LeftHandMiddle2
											{
												OFFSET 7.176498 0.000000 0.000000
												CHANNELS 3 Xrotation Yrotation Zrotation
												JOINT LeftHandMiddle3
												{
													OFFSET 6.774902 0.000000 0.000000
													CHANNELS 3 Xrotation Yrotation Zrotation
													JOINT LeftHandMiddle4
													{
														OFFSET 5.403328 0.000000 0.000000
														CHANNELS 3 Xrotation Yrotation Zrotation
														End Site
														{
															OFFSET 0.000000 0.000000 0.000000
														}
													}
												}
											}
										}
										JOINT LeftHandRing1
										{
											OFFSET 22.908401 -0.839279 -6.020567
											CHANNELS 3 Xrotation Yrotation Zrotation
											JOINT LeftHandRing2
											{
												OFFSET 6.337502 0.000000 0.000000
												CHANNELS 3 Xrotation Yrotation Zrotation
												JOINT LeftHandRing3
												{
													OFFSET 5.779297 0.000000 0.000000
													CHANNELS 3 Xrotation Yrotation Zrotation
													JOINT LeftHandRing4
													{
														OFFSET 4.965698 0.000000 0.000000
														CHANNELS 3 Xrotation Yrotation Zrotation
														End Site
														{
															OFFSET 0.000000 0.000000 0.000000
														}
													}
												}
											}
										}
										JOINT LeftHandPinky1
										{
											OFFSET 20.037003 -1.530319 -10.950146
											CHANNELS 3 Xrotation Yrotation Zrotation
											JOINT LeftHandPinky2
											{
												OFFSET 5.254700 0.000000 0.000000
												CHANNELS 3 Xrotation Yrotation Zrotation
												JOINT LeftHandPinky3
												{
													OFFSET 4.810204 0.000000 0.000000
													CHANNELS 3 Xrotation Yrotation Zrotation
													JOINT LeftHandPinky4
													{
														OFFSET 3.647202 0.000000 0.000000
														CHANNELS 3 Xrotation Yrotation Zrotation
														End Site
														{
															OFFSET 0.000000 0.000000 0.000000
														}
													}
												}
											}
										}
									}
								}
							}
						}
					}
					JOINT RightShoulder
					{
						OFFSET -7.570500 7.247704 -3.868750
						CHANNELS 3 Xrotation Yrotation Zrotation
						JOINT RightShoulder_split
						{
							OFFSET -7.570500 7.247704 -3.868750
							CHANNELS 3 Xrotation Yrotation Zrotation
							JOINT RightArm
							{
								OFFSET -9.308998 -2.777710 0.208500
								CHANNELS 3 Xrotation Yrotation Zrotation
								JOINT RightForeArm
								{
									OFFSET -29.972300 0.000000 0.000000
									CHANNELS 3 Xrotation Yrotation Zrotation
									JOINT RightHand
									{
										OFFSET -26.026505 0.000000 0.000000
										CHANNELS 3 Xrotation Yrotation Zrotation
										JOINT RightHandThumb1
										{
											OFFSET -12.240601 -7.148026 9.207092
											CHANNELS 3 Xrotation Yrotation Zrotation
											JOINT RightHandThumb2
											{
												OFFSET -4.138618 -2.389435 2.389433
												CHANNELS 3 Xrotation Yrotation Zrotation
												JOINT RightHandThumb3
												{
													OFFSET -2.726974 -1.574417 1.574421
													CHANNELS 3 Xrotation Yrotation Zrotation
													JOINT RightHandThumb4
													{
														OFFSET -3.941010 -2.275345 2.275343
														CHANNELS 3 Xrotation Yrotation Zrotation
														End Site
														{
															OFFSET 0.000000 0.000000 0.000000
														}
													}
												}
											}
										}
										JOINT RightHandIndex1
										{
											OFFSET -24.424698 -1.985657 5.953444
											CHANNELS 3 Xrotation Yrotation Zrotation
											JOINT RightHandIndex2
											{
												OFFSET -6.426697 0.000000 0.000000
												CHANNELS 3 Xrotation Yrotation Zrotation
												JOINT RightHandIndex3
												{
													OFFSET -5.337898 0.000000 0.000000
													CHANNELS 3 Xrotation Yrotation Zrotation
													JOINT RightHandIndex4
													{
														OFFSET -4.409401 0.000000 0.000000
														CHANNELS 3 Xrotation Yrotation Zrotation
														End Site
														{
															OFFSET 0.000000 0.000000 0.000000
														}
													}
												}
											}
										}
										JOINT RightHandMiddle1
										{
											OFFSET -23.810097 0.000000 0.000000
											CHANNELS 3 Xrotation Yrotation Zrotation
											JOINT RightHandMiddle2
											{
												OFFSET -7.176498 0.000000 0.000000
												CHANNELS 3 Xrotation Yrotation Zrotation
												JOINT RightHandMiddle3
												{
													OFFSET -6.774902 0.000000 0.000000
													CHANNELS 3 Xrotation Yrotation Zrotation
													JOINT RightHandMiddle4
													{
														OFFSET -5.403328 0.000000 0.000000
														CHANNELS 3 Xrotation Yrotation Zrotation
														End Site
														{
															OFFSET 0.000000 0.000000 0.000000
														}
													}
												}
											}
										}
										JOINT RightHandRing1
										{
											OFFSET -22.908302 -0.839325 -6.020576
											CHANNELS 3 Xrotation Yrotation Zrotation
											JOINT RightHandRing2
											{
												OFFSET -6.337502 0.000000 0.000000
												CHANNELS 3 Xrotation Yrotation Zrotation
												JOINT RightHandRing3
												{
													OFFSET -5.779297 0.000000 0.000000
													CHANNELS 3 Xrotation Yrotation Zrotation
													JOINT RightHandRing4
													{
														OFFSET -4.965698 0.000000 0.000000
														CHANNELS 3 Xrotation Yrotation Zrotation
														End Site
														{
															OFFSET 0.000000 0.000000 0.000000
														}
													}
												}
											}
										}
										JOINT RightHandPinky1
										{
											OFFSET -20.037003 -1.530334 -10.950259
											CHANNELS 3 Xrotation Yrotation Zrotation
											JOINT RightHandPinky2
											{
												OFFSET -5.254700 0.000000 0.000000
												CHANNELS 3 Xrotation Yrotation Zrotation
												JOINT RightHandPinky3
												{
													OFFSET -4.810204 0.000000 0.000000
													CHANNELS 3 Xrotation Yrotation Zrotation
													JOINT RightHandPinky4
													{
														OFFSET -3.647202 0.000000 0.000000
														CHANNELS 3 Xrotation Yrotation Zrotation
														End Site
														{
															OFFSET 0.000000 0.000000 0.000000
														}
													}
												}
											}
										}
									}
								}
							}
						}
					}
				}
			}
		}
	}
	JOINT LeftUpLeg
	{
		OFFSET 15.427100 -6.655098 0.678600
		CHANNELS 3 Xrotation Yrotation Zrotation
		JOINT LeftLeg
		{
			OFFSET 4.081073 -39.591068 13.024000
			CHANNELS 3 Xrotation Yrotation Zrotation
			JOINT LeftFoot
			{
				OFFSET -4.081074 -37.707932 -15.979700
				CHANNELS 3 Xrotation Yrotation Zrotation
				JOINT LeftToeBase
				{
					OFFSET 5.346399 -15.068900 20.645000
					CHANNELS 3 Xrotation Yrotation Zrotation
					JOINT LeftToe_End
					{
						OFFSET 2.754700 0.931300 11.300900
						CHANNELS 3 Xrotation Yrotation Zrotation
						End Site
						{
							OFFSET 0.000000 0.000000 0.000000
						}
					}
				}
			}
		}
	}
	JOINT RightUpLeg
	{
		OFFSET -15.569500 -6.655098 0.678600
		CHANNELS 3 Xrotation Yrotation Zrotation
		JOINT RightLeg
		{
			OFFSET -4.081825 -39.591045 13.023800
			CHANNELS 3 Xrotation Yrotation Zrotation
			JOINT RightFoot
			{
				OFFSET 4.081824 -37.707954 -15.979600
				CHANNELS 3 Xrotation Yrotation Zrotation
				JOINT RightToeBase
				{
					OFFSET -5.346400 -15.068900 20.645000
					CHANNELS 3 Xrotation Yrotation Zrotation
					JOINT RightToe_End
					{
						OFFSET -2.754700 0.931300 11.300900
						CHANNELS 3 Xrotation Yrotation Zrotation
						End Site
						{
							OFFSET 0.000000 0.000000 0.000000
						}
					}
				}
			}
		}
	}
}
MOTION
Frames: 5
Frame Time: 0.016667
0.425692 67.063080 -6.918204 -11.642057 4.015096 0.383714 23.956690 0.245095 0.721587 13.992116 -0.012111 0.874928 0.000000 0.000000 0.000000 13.993080 -0.019272 0.870005 17.101289 -1.158556 -1.120068 -9.419535 -3.200686 0.179589 -0.000002 0.000000 0.000000 1.274353 -20.464772 -8.784594 0.000000 0.000000 0.000000 -24.361967 0.125577 -58.409531 -134.037149 -77.572432 -130.766308 -10.954455 -21.976306 17.417652 20.303046 9.934847 -19.709477 3.939272 33.659469 6.068789 -0.000006 0.000009 -0.000001 0.000000 0.000002 -0.000001 11.348457 7.907815 -58.203689 11.226024 12.103228 -91.045575 0.000005 0.000008 -0.000002 -0.000002 -0.000001 -0.000001 -3.306158 14.721231 -56.170171 18.751043 6.507075 -95.555569 0.000014 -0.000002 0.000006 -0.000000 -0.000001 -0.000000 -8.496643 16.099246 -73.492221 10.309638 4.265370 -84.428358 0.000010 0.000017 0.000005 0.000001 0.000001 0.000003 -15.187849 25.468997 -80.134061 11.543903 -3.632275 -77.864095 0.000002 -0.000003 -0.000004 0.000001 -0.000000 0.000001 4.281751 6.062522 24.486793 0.000000 0.000000 0.000000 -20.183585 30.544005 38.966919 -101.168550 66.637361 94.218642 -10.108805 25.059863 -19.829311 9.450212 -8.378771 2.091202 9.478129 -37.583013 5.312515 -0.000002 0.000009 0.000007 0.000000 0.000002 0.000001 9.382235 -23.801881 56.987168 11.353603 -12.107979 91.751406 -0.000004 -0.000009 0.000002 0.000000 0.000000 -0.000001 -6.258890 -19.691615 58.403192 17.354315 -6.618590 88.873376 0.000008 -0.000009 -0.000017 0.000000 0.000000 0.000003 -12.782195 -20.150854 66.716052 10.303217 -4.268410 84.398284 0.000015 -0.000005 0.000003 0.000002 -0.000000 -0.000001 -20.835275 -25.749929 77.824296 11.580037 3.626337 78.017344 -0.000002 0.000010 0.000004 0.000001 0.000000 -0.000001 -33.076953 -5.835529 17.922077 69.768415 -2.843514 -0.788366 -24.108954 -2.078077 -14.400672 -0.000066 -0.000002 0.000001 0.000000 -0.000000 0.000000 -26.701762 -4.034269 -22.942390 70.643554 2.751020 0.673294 -30.215165 -3.801162 13.861821 -0.000085 0.000002 -0.000003 -0.000000 -0.000002 -0.000000 
0.392104 67.488403 -6.725791 -12.232190 4.042201 0.357439 23.831430 0.235722 0.716958 13.805195 -0.026557 0.877420 0.000000 0.000000 0.000000 13.806106 -0.034361 0.873753 16.072156 -1.248015 -1.155621 -9.382877 -3.306537 0.444387 0.000000 -0.000000 0.000000 1.202836 -20.287497 -9.383894 0.000000 0.000000 0.000000 -23.683027 -0.501267 -58.145045 -129.876634 -77.684557 -126.405901 -10.999896 -21.654357 17.436747 20.302797 9.934899 -19.709088 3.939264 33.659469 6.068793 -0.000006 0.000010 -0.000000 -0.000001 -0.000001 -0.000001 11.348448 7.907813 -58.203696 11.226468 12.103508 -91.045595 0.000005 0.000009 -0.000001 0.000000 0.000001 0.000000 -3.306161 14.721243 -56.170185 18.751082 6.507064 -95.555576 0.000013 -0.000003 0.000014 0.000000 -0.000001 0.000004 -8.496647 16.099232 -73.492221 10.309650 4.265571 -84.428392 0.000008 0.000017 0.000007 0.000002 -0.000000 0.000000 -15.187880 25.468961 -80.134054 11.543908 -3.632273 -77.864088 -0.000002 -0.000003 -0.000000 0.000000 -0.000001 -0.000002 4.360489 5.935281 25.053800 0.000000 0.000000 0.000000 -19.084833 29.887678 38.977236 -103.118187 67.822897 95.667113 -10.145663 25.283398 -19.500484 9.446297 -8.364334 2.093531 9.478005 -37.583054 5.312466 -0.000001 0.000010 0.000008 -0.000000 0.000003 -0.000000 9.382243 -23.801877 56.987181 11.353653 -12.108300 91.751413 -0.000004 -0.000009 0.000000 0.000000 -0.000000 -0.000002 -6.258507 -19.691505 58.403226 17.354329 -6.618617 88.873356 0.000008 -0.000009 -0.000017 -0.000001 0.000000 0.000000 -12.782151 -20.150861 66.716072 10.303200 -4.268395 84.398264 0.000011 -0.000005 0.000003 0.000003 -0.000001 0.000001 -20.835268 -25.749919 77.824296 11.580049 3.626330 78.017351 0.000001 0.000010 0.000005 0.000003 0.000000 -0.000001 -31.775925 -5.804082 17.898772 69.123522 -2.775066 -0.764157 -24.169815 -1.946048 -14.443553 -0.000066 -0.000002 0.000001 -0.000000 0.000000 -0.000000 -25.458342 -4.385514 -22.702155 69.910046 2.696953 0.646232 -30.196912 -3.847966 13.790003 -0.000085 0.000003 -0.000003 -0.000000 -0.000000 -0.000000 
0.340955 67.909363 -6.528090 -12.399105 4.076968 0.362511 23.645507 0.210910 0.709839 13.485195 -0.074092 0.867700 0.000000 0.000000 0.000000 13.486085 -0.083624 0.864977 15.039849 -1.249822 -1.288811 -9.417303 -3.318418 0.602191 0.000001 0.000000 0.000000 1.157232 -20.150257 -9.778062 0.000000 0.000000 0.000000 -22.947103 -1.113762 -58.002916 -128.515829 -78.463833 -124.614616 -11.059314 -21.593657 17.251446 20.302592 9.934940 -19.708695 3.939291 33.659517 6.068759 -0.000007 0.000007 -0.000001 0.000001 -0.000002 -0.000000 11.348468 7.907816 -58.203703 11.226868 12.103752 -91.045636 0.000004 0.000008 -0.000001 0.000001 0.000000 -0.000003 -3.306153 14.721242 -56.170168 18.751079 6.507063 -95.555583 0.000014 -0.000002 0.000011 0.000000 0.000000 0.000003 -8.496640 16.099249 -73.492207 10.309648 4.265820 -84.428446 0.000009 0.000017 0.000008 0.000002 -0.000000 0.000001 -15.187887 25.468975 -80.134040 11.543937 -3.632272 -77.864102 0.000002 -0.000002 -0.000005 0.000001 0.000000 -0.000000 4.416297 5.793501 25.390707 0.000000 0.000000 0.000000 -17.739864 29.670178 39.116753 -104.281559 68.988592 96.225925 -10.264615 25.068420 -18.893377 9.441755 -8.346793 2.096337 9.477912 -37.583116 5.312450 -0.000001 0.000005 0.000008 -0.000000 0.000001 0.000000 9.382270 -23.801889 56.987202 11.353693 -12.108535 91.751420 -0.000005 -0.000011 0.000003 0.000000 -0.000000 0.000001 -6.258163 -19.691427 58.403261 17.354317 -6.618607 88.873363 0.000008 -0.000008 -0.000015 -0.000001 -0.000000 -0.000001 -12.782165 -20.150860 66.716052 10.303217 -4.268429 84.398291 0.000009 -0.000005 0.000001 -0.000001 0.000000 0.000000 -20.835258 -25.749926 77.824289 11.580038 3.626343 78.017365 0.000002 0.000010 0.000004 0.000006 -0.000000 0.000000 -30.960988 -5.751614 17.833103 68.463473 -2.703054 -0.741318 -24.157604 -1.836402 -14.491954 -0.000066 -0.000002 0.000001 -0.000000 0.000000 0.000000 -24.704407 -4.668205 -22.504913 69.235285 2.624839 0.623260 -30.161545 -3.897630 13.721876 -0.000085 0.000002 -0.000003 -0.000000 -0.000002 -0.000000 
0.276770 68.330200 -6.318955 -12.414138 4.116194 0.388190 23.415258 0.165273 0.706329 13.067815 -0.162274 0.825651 0.000000 0.000000 0.000000 13.068602 -0.171246 0.822490 13.978639 -1.216190 -1.482818 -9.588718 -3.290706 0.698248 -0.000001 -0.000000 0.000000 1.128241 -20.026953 -10.044963 0.000000 0.000000 0.000000 -22.214347 -1.700948 -57.924608 -130.357015 -79.992334 -125.863639 -11.142082 -21.528968 16.750306 20.302398 9.935007 -19.708366 3.939270 33.659493 6.068812 -0.000008 0.000010 -0.000001 0.000001 0.000005 -0.000001 11.348459 7.907810 -58.203696 11.227254 12.103993 -91.045677 0.000005 0.000009 -0.000000 -0.000002 0.000001 -0.000004 -3.306149 14.721236 -56.170185 18.751063 6.507074 -95.555590 0.000013 -0.000001 0.000012 -0.000001 -0.000000 0.000001 -8.496620 16.099244 -73.492234 10.309678 4.266071 -84.428515 0.000007 0.000017 0.000006 0.000001 -0.000000 0.000001 -15.187856 25.468968 -80.134088 11.543908 -3.632248 -77.864095 -0.000001 -0.000002 -0.000002 0.000000 -0.000000 -0.000001 4.462496 5.633521 25.560928 0.000000 0.000000 0.000000 -16.203642 29.709076 39.388198 -105.211845 70.240737 96.452038 -10.509745 24.499113 -18.061365 9.436419 -8.325836 2.099694 9.477810 -37.583130 5.312420 -0.000001 0.000003 0.000007 -0.000000 -0.000004 0.000000 9.382275 -23.801881 56.987192 11.353730 -12.108757 91.751406 -0.000005 -0.000010 0.000001 -0.000000 -0.000001 0.000003 -6.257888 -19.691355 58.403295 17.354322 -6.618623 88.873356 0.000006 -0.000009 -0.000010 0.000000 -0.000000 0.000001 -12.782144 -20.150883 66.716072 10.303220 -4.268414 84.398284 0.000010 -0.000006 0.000002 0.000000 0.000000 -0.000000 -20.835267 -25.749917 77.824289 11.580021 3.626328 78.017351 0.000003 0.000008 0.000005 0.000004 0.000000 0.000000 -30.321009 -5.656251 17.762735 67.786383 -2.653779 -0.716836 -24.116288 -1.748635 -14.526093 -0.000066 -0.000002 0.000001 -0.000000 -0.000000 -0.000000 -24.125840 -4.946484 -22.332707 68.581670 2.569999 0.600268 -30.130389 -3.951212 13.631549 -0.000085 0.000003 -0.000003 0.000000 -0.000000 0.000000 
0.210745 68.766640 -6.114967 -12.535139 4.123344 0.410677 23.210105 0.125997 0.689199 12.703021 -0.226609 0.772104 0.000000 0.000000 0.000000 12.703649 -0.233556 0.766654 12.861724 -1.200977 -1.613199 -9.877440 -3.291000 0.800854 0.000004 -0.000000 -0.000000 1.104429 -19.890672 -10.278940 0.000000 0.000000 0.000000 -21.196859 -2.412181 -57.702019 -130.960504 -81.096195 -125.841618 -11.225798 -21.448464 16.230121 20.302174 9.935051 -19.708029 3.939283 33.659493 6.068791 -0.000005 0.000007 -0.000001 -0.000001 0.000002 0.000000 11.348409 7.907831 -58.203682 11.227620 12.104232 -91.045663 0.000004 0.000007 -0.000003 0.000002 -0.000001 -0.000003 -3.306181 14.721228 -56.170164 18.751098 6.507057 -95.555583 0.000013 -0.000002 0.000013 -0.000000 0.000000 0.000002 -8.496678 16.099220 -73.492221 10.309675 4.266395 -84.428549 0.000008 0.000017 0.000004 0.000001 0.000000 0.000004 -15.187894 25.468963 -80.134054 11.543897 -3.632269 -77.864088 -0.000002 -0.000002 -0.000000 0.000000 -0.000000 0.000000 4.503878 5.478726 25.672284 0.000000 0.000000 0.000000 -14.594898 29.842124 39.506159 -105.759079 71.476816 96.313317 -10.676536 24.075063 -17.568908 9.430490 -8.302002 2.103793 9.477738 -37.583184 5.312413 -0.000001 0.000011 0.000007 0.000000 0.000001 0.000000 9.382242 -23.801871 56.987195 11.353714 -12.108896 91.751400 -0.000004 -0.000009 -0.000001 -0.000001 -0.000000 0.000001 -6.257776 -19.691309 58.403329 17.354315 -6.618610 88.873370 0.000009 -0.000008 -0.000009 -0.000000 0.000000 0.000002 -12.782161 -20.150858 66.716072 10.303226 -4.268414 84.398284 0.000010 -0.000005 0.000001 -0.000000 0.000001 -0.000001 -20.835270 -25.749914 77.824296 11.580033 3.626319 78.017344 -0.000004 0.000009 0.000005 -0.000003 -0.000000 -0.000001 -29.543276 -5.525881 17.723538 67.075681 -2.604262 -0.692374 -24.073087 -1.667564 -14.558661 -0.000066 -0.000002 0.000001 0.000000 0.000000 0.000000 -23.427132 -5.203755 -22.122998 67.890783 2.514203 0.576335 -30.074750 -4.010273 13.533679 -0.000085 0.000003 -0.000003 -0.000000 -0.000000 -0.000000 
